<?xml version="1.0" encoding="UTF-8" standalone="no"?>
<!DOCTYPE svg PUBLIC "-//W3C//DTD SVG 1.1//EN" "http://www.w3.org/Graphics/SVG/1.1/DTD/svg11.dtd">
<svg width="100%" height="100%" viewBox="0 0 48 48" version="1.1" xmlns="http://www.w3.org/2000/svg" xmlns:xlink="http://www.w3.org/1999/xlink" xml:space="preserve" xmlns:serif="http://www.serif.com/" style="fill-rule:evenodd;clip-rule:evenodd;stroke-linejoin:round;stroke-miterlimit:2;">
    <g transform="matrix(1,0,0,1,-52,-1.77636e-15)">
        <g id="ArtBoard1" transform="matrix(1,0,0,1,52,1.77636e-15)">
            <rect x="0" y="0" width="48" height="48" style="fill:none;"/>
            <g transform="matrix(1.65517,0,0,1.54839,-19.8621,-21.6774)">
                <path d="M41,19.49C41,16.46 38.699,14 35.865,14L17.135,14C14.301,14 12,16.46 12,19.49L12,39.51C12,42.54 14.301,45 17.135,45L35.865,45C38.699,45 41,42.54 41,39.51L41,19.49Z" style="fill:rgb(29,87,129);"/>
            </g>
            <g transform="matrix(0.0828112,0,0,0.0828112,2.43623,10.7134)">
                <clipPath id="_clip1">
                    <rect x="18.884" y="18.172" width="483.027" height="284.545"/>
                </clipPath>
                <g clip-path="url(#_clip1)">
                    <path d="M341.857,65.838L333.73,108.564L287.503,108.564L263.983,232.544L212.618,232.544L236.139,108.564L189.906,108.564L198.035,65.838L341.857,65.838ZM499.28,127.942C499.217,77.978 466.346,61.87 429.224,61.87C372.485,61.87 338.083,106.694 337.138,160.63C336.363,205.225 359.163,236.513 407.495,236.513C476.836,236.513 490.789,186.313 494.122,169.271L443.691,169.271C440.165,183.977 430.864,194.953 414.756,194.953C391.178,194.953 388.283,173.473 388.523,159.698C388.935,136.115 399.779,103.428 428.261,103.428C444.138,103.428 451.456,112.299 450.716,127.942L499.28,127.942ZM144.121,142.654L144.121,143.121C157.989,146.389 166.812,161.099 166.812,176.509C166.812,216.666 137.818,232.544 105.037,232.544L18.884,232.544L49.982,65.838L127.101,65.838C159.671,65.838 171.86,78.447 171.86,102.494C171.86,123.509 162.402,137.283 144.333,142.654L144.121,142.654ZM120.584,176.042C120.584,163.666 112.392,161.797 102.727,161.797L77.3,161.797L71.416,192.85L101.047,192.85C109.239,192.85 120.584,189.583 120.584,176.042ZM125.631,117.437C125.631,107.397 119.535,105.529 111.34,105.529L87.596,105.529L82.975,130.744L109.03,130.744C116.382,130.744 125.631,127.711 125.631,117.437ZM590.827,302.717L598.535,302.717L598.535,18.172L590.827,18.172L590.827,302.717ZM690.639,187.184C694.175,187.184 698.321,188.552 700.95,189.921L703.779,182.128C699.534,180.338 694.884,179.18 690.335,179.18C681.842,179.18 670.924,183.603 670.924,194.976C670.924,208.561 688.516,209.929 688.516,219.091C688.516,225.199 682.854,227.41 677.698,227.41C673.553,227.41 669.611,225.936 665.869,224.356L664.049,232.887C667.892,234.255 670.924,235.414 679.112,235.414C687.2,235.414 698.624,231.202 698.624,218.249C698.624,203.296 681.034,202.874 681.034,193.712C681.034,188.342 686.493,187.184 690.639,187.184ZM893.429,199.715C893.429,203.296 893.026,206.349 892.522,209.508L856.228,209.508C856.025,210.667 855.925,211.72 855.925,212.878C855.925,224.146 862.597,227.41 871.797,227.41C876.549,227.41 881.702,226.147 886.354,224.146L884.838,233.202C879.885,234.466 874.729,235.414 869.572,235.414C857.038,235.414 845.815,230.148 845.815,211.193C845.815,196.345 855.822,179.18 874.02,179.18C886.456,179.18 893.429,186.972 893.429,199.715ZM883.928,198.03C883.928,191.712 880.188,187.184 873.01,187.184C865.226,187.184 859.261,194.239 857.238,202.136L883.625,202.136C883.828,200.557 883.928,199.294 883.928,198.03ZM831.461,164.331L821.25,168.017L818.724,180.444L807.197,180.444L805.781,188.447L817.105,188.447L812.658,210.877C812.05,213.826 810.836,220.039 810.836,223.514C810.836,229.201 814.175,235.414 823.17,235.414C825.902,235.414 830.348,235.098 832.471,234.255L833.887,226.041C832.067,226.884 829.235,227.41 827.215,227.41C822.363,227.41 820.34,225.41 820.34,221.619C820.34,219.724 821.35,213.932 821.857,211.51L826.608,188.447L840.862,188.447L842.378,180.444L828.225,180.444L831.461,164.331ZM969.556,179.18C961.669,179.18 956.312,182.444 951.257,188.552C949.538,182.128 943.675,179.18 937.608,179.18C930.836,179.18 924.871,182.128 921.232,187.815L921.029,187.815L922.242,180.444L913.347,180.444C912.941,182.761 912.74,184.656 912.334,186.551L902.833,234.151L912.334,234.151L918.096,207.191C919.816,198.872 925.174,187.184 934.778,187.184C939.631,187.184 942.36,190.658 942.36,195.081C942.36,196.24 942.157,198.03 941.753,200.136L934.879,234.151L944.382,234.151L950.144,207.191C951.864,198.872 957.222,187.184 966.824,187.184C971.678,187.184 974.408,190.658 974.408,195.081C974.408,196.24 974.205,198.03 973.801,200.136L966.927,234.151L976.428,234.151L982.393,204.454C983.203,200.663 983.909,196.45 983.909,193.186C983.909,184.972 977.947,179.18 969.556,179.18ZM997.659,194.976C997.659,208.561 1015.25,209.929 1015.25,219.091C1015.25,225.199 1009.59,227.41 1004.43,227.41C1000.29,227.41 996.343,225.936 992.604,224.356L990.784,232.887C994.626,234.255 997.659,235.414 1005.85,235.414C1013.93,235.414 1025.36,231.202 1025.36,218.249C1025.36,203.296 1007.77,202.874 1007.77,193.712C1007.77,188.342 1013.23,187.184 1017.37,187.184C1020.91,187.184 1025.06,188.552 1027.68,189.921L1030.51,182.128C1026.27,180.338 1021.62,179.18 1017.07,179.18C1008.58,179.18 997.659,183.603 997.659,194.976ZM751.597,180.444L729.153,223.304L728.953,223.304L722.988,180.444L713.08,180.444L721.371,237.098C717.426,245.418 713.484,249.419 707.722,249.525C706.003,249.525 704.285,248.998 703.576,248.578L701.96,256.791C704.386,257.317 706.812,257.529 709.138,257.529C718.639,257.529 722.078,252.473 726.627,244.26L761.808,180.444L751.597,180.444ZM764.84,194.976C764.84,208.561 782.43,209.929 782.43,219.091C782.43,225.199 776.768,227.41 771.615,227.41C767.469,227.41 763.525,225.936 759.785,224.356L757.966,232.887C761.808,234.255 764.84,235.414 773.029,235.414C781.116,235.414 792.54,231.202 792.54,218.249C792.54,203.296 774.949,202.874 774.949,193.712C774.949,188.342 780.41,187.184 784.553,187.184C788.092,187.184 792.237,188.552 794.866,189.921L797.696,182.128C793.45,180.338 788.798,179.18 784.249,179.18C775.758,179.18 764.84,183.603 764.84,194.976ZM807.3,98.182C807.3,89.967 801.337,84.175 792.944,84.175C785.059,84.175 779.703,87.441 774.647,93.548C772.928,87.125 767.064,84.175 761.001,84.175C754.226,84.175 748.261,87.125 744.622,92.81L744.419,92.81L745.632,85.44L736.737,85.44C736.331,87.755 736.131,89.651 735.725,91.547L726.223,139.147L735.725,139.147L741.489,112.187C743.206,103.867 748.564,92.18 758.169,92.18C763.021,92.18 765.75,95.655 765.75,100.076C765.75,101.234 765.547,103.025 765.144,105.131L758.269,139.147L767.773,139.147L773.535,112.187C775.254,103.867 780.612,92.18 790.217,92.18C795.069,92.18 797.798,95.655 797.798,100.076C797.798,101.234 797.595,103.025 797.192,105.131L790.317,139.147L799.821,139.147L805.784,109.448C806.593,105.659 807.3,101.446 807.3,98.182ZM1116.55,104.71C1116.55,108.29 1116.14,111.344 1115.64,114.504L1079.34,114.504C1079.14,115.662 1079.04,116.716 1079.04,117.874C1079.04,129.141 1085.71,132.405 1094.91,132.405C1099.66,132.405 1104.82,131.142 1109.47,129.141L1107.95,138.198C1103,139.461 1097.84,140.41 1092.69,140.41C1080.15,140.41 1068.93,135.145 1068.93,116.188C1068.93,101.341 1078.94,84.175 1097.13,84.175C1109.57,84.175 1116.55,91.968 1116.55,104.71ZM1107.04,103.025C1107.04,96.707 1103.3,92.18 1096.12,92.18C1088.34,92.18 1082.37,99.236 1080.35,107.131L1106.74,107.131C1106.94,105.552 1107.04,104.289 1107.04,103.025ZM827.014,139.147L818.117,139.147L834.192,60.167L843.694,60.167L837.325,91.231L837.526,91.231C840.762,86.704 846.727,84.175 853.904,84.175C865.531,84.175 872.303,93.022 872.303,104.605C872.303,124.298 863.509,140.41 846.323,140.41C835.303,140.41 831.664,135.985 828.934,130.195L828.731,130.195L827.014,139.147ZM832.17,118.293C832.17,125.561 836.315,132.405 845.007,132.405C855.825,132.405 862.193,118.821 862.193,105.447C862.193,96.391 857.24,92.18 850.669,92.18C839.549,92.18 832.17,105.026 832.17,118.293ZM1186.91,60.167L1174.17,121.348C1172.96,127.352 1171.95,133.247 1171.24,139.147L1162.34,139.147C1162.85,136.618 1163.25,133.67 1164.06,130.932L1163.86,130.932C1160.32,138.093 1154.05,140.41 1146.27,140.41C1133.83,140.41 1127.16,130.09 1127.16,117.874C1127.16,101.025 1136.26,84.175 1153.85,84.175C1160.82,84.175 1167.5,87.334 1170.43,94.285L1170.63,94.285L1177.4,60.167L1186.91,60.167ZM1167.19,106.817C1167.19,98.812 1162.64,92.18 1154.35,92.18C1143.13,92.18 1137.27,107.027 1137.27,117.137C1137.27,125.666 1141.11,132.405 1149.8,132.405C1161.73,132.405 1167.19,116.925 1167.19,106.817ZM883.121,116.188C883.121,101.341 893.128,84.175 911.324,84.175C923.76,84.175 930.735,91.968 930.735,104.71C930.735,108.29 930.33,111.344 929.826,114.504L893.532,114.504C893.329,115.662 893.229,116.716 893.229,117.874C893.229,129.141 899.903,132.405 909.101,132.405C913.853,132.405 919.008,131.142 923.658,129.141L922.141,138.198C917.189,139.461 912.033,140.41 906.878,140.41C894.341,140.41 883.121,135.145 883.121,116.188ZM894.544,107.131L920.928,107.131C921.131,105.552 921.232,104.289 921.232,103.025C921.232,96.707 917.492,92.18 910.314,92.18C902.53,92.18 896.565,99.236 894.544,107.131ZM1001.1,60.167L988.36,121.348C987.145,127.352 986.135,133.247 985.428,139.147L976.531,139.147C977.037,136.618 977.441,133.67 978.25,130.932L978.047,130.932C974.51,138.093 968.242,140.41 960.458,140.41C948.022,140.41 941.35,130.09 941.35,117.874C941.35,101.025 950.448,84.175 968.039,84.175C975.014,84.175 981.686,87.334 984.619,94.285L984.821,94.285L991.594,60.167L1001.1,60.167ZM981.383,106.817C981.383,98.812 976.834,92.18 968.545,92.18C957.322,92.18 951.46,107.027 951.46,117.137C951.46,125.666 955.302,132.405 963.994,132.405C975.924,132.405 981.383,116.925 981.383,106.817ZM669.205,116.188C669.205,101.341 679.215,84.175 697.411,84.175C709.847,84.175 716.82,91.968 716.82,104.71C716.82,108.29 716.416,111.344 715.912,114.504L679.619,114.504C679.416,115.662 679.315,116.716 679.315,117.874C679.315,129.141 685.987,132.405 695.188,132.405C699.939,132.405 705.093,131.142 709.744,129.141L708.228,138.198C703.273,139.461 698.12,140.41 692.962,140.41C680.428,140.41 669.205,135.145 669.205,116.188ZM680.629,107.131L707.015,107.131C707.218,105.552 707.318,104.289 707.318,103.025C707.318,96.707 703.579,92.18 696.401,92.18C688.616,92.18 682.651,99.236 680.629,107.131ZM1055.38,60.167L1064.89,60.167L1052.15,121.348C1050.94,127.352 1049.93,133.247 1049.22,139.147L1040.32,139.147C1040.83,136.618 1041.23,133.67 1042.04,130.932L1041.84,130.932C1038.3,138.093 1032.03,140.41 1024.25,140.41C1011.81,140.41 1005.14,130.09 1005.14,117.874C1005.14,101.025 1014.24,84.175 1031.83,84.175C1038.8,84.175 1045.48,87.334 1048.41,94.285L1048.61,94.285L1055.38,60.167ZM1045.17,106.817C1045.17,98.812 1040.62,92.18 1032.33,92.18C1021.11,92.18 1015.25,107.027 1015.25,117.137C1015.25,125.666 1019.09,132.405 1027.78,132.405C1039.71,132.405 1045.17,116.925 1045.17,106.817" style="fill:white;"/>
                </g>
            </g>
        </g>
    </g>
</svg>
